<?xml version="1.0" standalone="no"?>
<!DOCTYPE svg PUBLIC "-//W3C//DTD SVG 20010904//EN"
 "http://www.w3.org/TR/2001/REC-SVG-20010904/DTD/svg10.dtd">
<svg version="1.0" xmlns="http://www.w3.org/2000/svg"
 width="1280.000000pt" height="1280.000000pt" viewBox="0 0 1280.000000 1280.000000"
 preserveAspectRatio="xMidYMid meet">
<metadata>
Created by potrace 1.16, written by Peter Selinger 2001-2019
</metadata>
<g transform="translate(0.000000,1280.000000) scale(0.100000,-0.100000)"
fill="#000000" stroke="none">
<path d="M10612 8420 c-156 -42 -292 -149 -365 -287 -65 -124 -67 -142 -67
-670 l0 -473 -4852 -2 c-4703 -3 -4855 -4 -4908 -22 -208 -70 -353 -219 -405
-416 -19 -71 -19 -229 0 -300 52 -197 197 -346 405 -416 53 -18 205 -19 4908
-22 l4852 -2 0 -473 c0 -528 2 -546 67 -670 46 -88 147 -191 228 -233 107 -56
159 -69 285 -69 136 0 223 24 323 87 44 28 292 271 832 811 817 818 821 823
863 957 24 77 24 283 0 360 -42 135 -46 138 -868 961 -818 819 -821 822 -960
869 -93 32 -241 37 -338 10z"/>
</g>
</svg>
